Genre:Action | Adventure | Drama
 Language:English
 IMDb:http://www.imdb.com/title/tt1601913/
 Source:BluRay.x264.DTS-HDChina Thanks!
 Encoder:Tony
 
Format : MPEG-4
 Format profile : Base Media
 Codec ID : isom
 File size : 2.72 GiB
 Duration : 1h 57mn
 Overall bit rate mode : Variable
 Overall bit rate : 3 309 Kbps
 
Video
 ID : 1
 Format : AVC
 Format/Info : Advanced Video Codec
 Format profile : High@L5.1
 Format settings, CABAC : Yes
 Format settings, ReFrames : 5 frames
 Codec ID : avc1
 Codec ID/Info : Advanced Video Coding
 Duration : 1h 57mn
 Bit rate : 3 000 Kbps
 Maximum bit rate : 20.5 Mbps
 Width : 1 280 pixels
 Height : 528 pixels
 Display aspect ratio : 2.40:1
 Frame rate mode : Constant
 Frame rate : 23.976 fps
 Color space : YUV
 Chroma subsampling : 4:2:0
 Bit depth : 8 bits
 Scan type : Progressive
 Bits/(Pixel*Frame) : 0.185
 Stream size : 2.36 GiB (87%)
 Writing library : x264
 
Audio
 ID : 2
 Format : AAC
 Format/Info : Advanced Audio Codec
 Format profile : LC
 Codec ID : 40
 Duration : 1h 57mn
 Bit rate mode : Variable
 Bit rate : 431 Kbps
 Maximum bit rate : 577 Kbps
 Channel(s) : 6 channels
 Channel positions : Front: L C R, Side: L R, LFE
 Sampling rate : 48.0 KHz
 Compression mode : Lossy
 Stream size : 363 MiB (13%)
 
Plot:
 In Alaska, an oil drilling team struggle to survive after a plane crash strands them in the wild. Hunting the humans are a pack of wolves who see them as intruders
 